<svg xmlns="http://www.w3.org/2000/svg" xmlns:xlink="http://www.w3.org/1999/xlink" width="243" height="48" viewBox="0 0 243 48">
    <defs>
        <path id="a" d="M0 47.435h242.64V.191H0z"/>
    </defs>
    <g fill="none" fill-rule="evenodd">
        <path fill="#FFCA05" d="M0 47.808h47.168V.565H0z"/>
        <path fill="#005825" d="M6.814 40.982h33.54V7.39H6.814z"/>
        <path fill="#004819" d="M40.354 7.389L17.341 24.786l23.013 16.196z"/>
        <g transform="translate(0 .373)">
            <path fill="#FFF" d="M61.698 37.972h5.633c1.802 0 3.491-.295 5.066-.886a11.49 11.49 0 0 0 4.118-2.631c1.17-1.163 2.092-2.598 2.767-4.302.672-1.703 1.01-3.669 1.01-5.896 0-1.94-.32-3.728-.96-5.364-.64-1.637-1.532-3.045-2.679-4.227a12.117 12.117 0 0 0-4.08-2.757c-1.574-.66-3.305-.988-5.191-.988h-5.684v27.05zM56.367 8.568H66.9c3.267 0 6.068.308 8.4.923 2.334.617 4.283 1.591 5.85 2.924 1.801 1.518 3.153 3.264 4.054 5.238.901 1.973 1.352 4.142 1.352 6.503 0 2.227-.404 4.323-1.212 6.288a14.533 14.533 0 0 1-3.55 5.136c-1.558 1.46-3.478 2.611-5.76 3.455-2.283.844-4.898 1.265-7.845 1.265H56.367V8.568z"/>
            <mask id="b" fill="#fff">
                <use xlink:href="#a"/>
            </mask>
            <path fill="#FFF" d="M93.127 40.3h5.33V8.568h-5.33zM106.415 8.568h2.982l20.766 23.205h.203V8.568h2.35v32.491h-1.239l-22.486-25.81h-.175v25.05h-2.4zM145.397 27.674h11.647l-5.735-12.553-5.912 12.553zm7.984-19.815l14.906 32.44h-5.407l-4.85-10.576h-13.567L139.46 40.3h-2.678l15.26-32.44h1.34zM177.686 23.802h3.082c1.195 0 2.3-.16 3.31-.481 1.01-.32 1.886-.772 2.627-1.354a6.122 6.122 0 0 0 1.73-2.125c.413-.835.62-1.776.62-2.822 0-.944-.165-1.813-.493-2.607a5.863 5.863 0 0 0-1.39-2.037 6.525 6.525 0 0 0-2.121-1.327c-.818-.322-1.715-.482-2.69-.482h-4.675v13.235zm-5.33-15.234h10.964c1.903 0 3.575.207 5.015.62 1.44.414 2.64.988 3.6 1.72.96.735 1.68 1.608 2.16 2.62.48 1.012.72 2.117.72 3.315 0 .996-.185 1.923-.555 2.783a7.556 7.556 0 0 1-1.58 2.329c-.682.692-1.499 1.29-2.45 1.797-.951.505-2.009.894-3.17 1.163L198.58 40.3h-6.165l-10.99-14.904h-3.739V40.3h-5.33V8.568zM202.546 40.3h5.33V8.568h-5.33zM215.28 8.568h5.329v20.599c0 1.349.232 2.618.695 3.808a9.378 9.378 0 0 0 1.984 3.125c.858.894 1.894 1.603 3.107 2.125 1.213.523 2.568.784 4.067.784 1.516 0 2.88-.261 4.094-.784 1.213-.522 2.244-1.23 3.094-2.125a9.295 9.295 0 0 0 1.958-3.125c.455-1.19.682-2.46.682-3.808v-20.6h2.35v20.6c0 1.62-.261 3.15-.783 4.592a9.798 9.798 0 0 1-2.477 3.783c-1.127 1.08-2.568 1.936-4.319 2.569-1.752.632-3.848.948-6.291.948-2.19 0-4.127-.316-5.81-.948-1.685-.633-3.096-1.494-4.233-2.582a10.706 10.706 0 0 1-2.576-3.821c-.581-1.459-.872-3.016-.872-4.668V8.568z" mask="url(#b)"/>
        </g>
    </g>
</svg>
