<svg xmlns="http://www.w3.org/2000/svg" width="23" height="23" viewBox="0 0 23 23">
    <path fill="#FFCB08" fill-rule="evenodd" d="M5.25 18.636c.297-1.6 3.305-4.129 6.271-4.129 3.051 0 5.808 2.615 6.206 4.151a9.445 9.445 0 0 1-12.477-.022m6.25-6.189A2.62 2.62 0 0 1 8.883 9.83 2.62 2.62 0 0 1 11.5 7.213a2.62 2.62 0 0 1 2.617 2.617 2.62 2.62 0 0 1-2.617 2.617M11.5 2c5.238 0 9.5 4.261 9.5 9.5a9.44 9.44 0 0 1-1.803 5.546c-.844-1.535-2.534-3.039-4.531-3.872a4.596 4.596 0 0 0 1.451-3.344A4.622 4.622 0 0 0 11.5 5.213 4.622 4.622 0 0 0 6.883 9.83c0 1.318.562 2.501 1.45 3.343-2.018.83-3.721 2.322-4.556 3.838A9.436 9.436 0 0 1 2 11.501C2 6.26 6.262 2 11.5 2m0-2C5.159 0 0 5.157 0 11.5 0 17.84 5.159 23 11.5 23S23 17.84 23 11.5C23 5.157 17.841 0 11.5 0"/>
</svg>
