<svg xmlns="http://www.w3.org/2000/svg" xmlns:xlink="http://www.w3.org/1999/xlink" width="77" height="79" viewBox="0 0 77 79">
    <defs>
        <path id="a" d="M77 .29V35H0V.29h77z"/>
        <path id="c" d="M.46.298h42.083v42.083H.46z"/>
    </defs>
    <g fill="none" fill-rule="evenodd">
        <g transform="translate(0 43.702)">
            <mask id="b" fill="#fff">
                <use xlink:href="#a"/>
            </mask>
            <path fill="#000" d="M74.681 7.361c-1.089-.557-3.275-1.08-6.637.72.023-1.334-.445-2.46-1.378-3.206-1.726-1.377-4.543-1.037-7.35.886l-.394.271c-.26-.83-.727-1.45-1.4-1.852-1.503-.897-3.837-.517-6.934 1.13l-11.665 6.223c-2.88-.418-5.268-1.589-10.127-5.19L22.068 1.36c-1.604-1.187-5.51-1.584-9.027-.155L.623 6.251a1 1 0 0 0 .753 1.853l12.418-5.048c2.882-1.17 6.068-.84 7.083-.09l6.728 4.985c7.68 5.688 9.953 5.731 16.03 5.846 1.577.03 3.363.062 5.602.196.723.043 1.384.688 1.506 1.47.142.917-.516 1.726-1.863 2.247-9.472 4.33-15.157 2.903-25.095-2.185a1 1 0 1 0-.91 1.781c5.587 2.861 10.3 4.966 15.685 4.966 3.322 0 6.9-.8 11.095-2.72 2.607-1.003 3.292-2.928 3.064-4.396-.265-1.704-1.71-3.063-3.364-3.159-2.278-.136-4.087-.17-5.682-.2l-.985-.02 8.84-4.702c2.298-1.223 4.155-1.66 4.97-1.177.434.26.658.89.663 1.872a1 1 0 0 0 1.565.82l1.72-1.178c2.46-1.686 4.216-1.577 4.973-.974.746.596.833 1.861.23 3.385A.999.999 0 0 0 67.167 11c2.686-1.95 5.095-2.626 6.605-1.857A2.226 2.226 0 0 1 75 11.132c0 .774-.395 1.418-1.162 1.812L46.8 30.025c-5.52 3.487-12.627 3.363-14.28 2.377a.997.997 0 0 0-.263-.11c-3.37-.869-6.064-1.727-8.44-2.483-6.118-1.949-10.16-3.233-17.892-2.243a1 1 0 0 0 .255 1.984c7.293-.937 10.958.232 17.03 2.165 2.372.754 5.056 1.61 8.421 2.481.964.517 2.563.804 4.477.804 3.517 0 8.1-.972 11.76-3.284l26.957-17.035c1.36-.689 2.173-2.016 2.175-3.549a4.215 4.215 0 0 0-2.319-3.77" mask="url(#b)"/>
        </g>
        <g transform="translate(17 .702)">
            <mask id="d" fill="#fff">
                <use xlink:href="#c"/>
            </mask>
            <path fill="#000" d="M21.5 2.298c10.5 0 19.043 8.542 19.043 19.042 0 10.499-8.542 19.04-19.042 19.04C11 40.38 2.46 31.84 2.46 21.34c0-10.5 8.542-19.042 19.04-19.042m0 40.083c11.604 0 21.043-9.44 21.043-21.041C42.543 9.737 33.103.298 21.5.298 9.899.298.46 9.737.46 21.34c0 11.602 9.439 21.04 21.04 21.04" mask="url(#d)"/>
        </g>
        <path fill="#000" d="M30.025 21.553v-4.035h2.33c1.157 0 1.98.174 2.445.516.46.337.682.81.682 1.45 0 .659-.26 1.154-.796 1.513-.547.369-1.303.556-2.246.556h-2.415zm-.276 6.232a.877.877 0 0 0 .276-.654V23.32h2.858c.74 0 1.296.178 1.653.529.364.359.597.77.693 1.223.1.47.15.99.15 1.547v.512c0 .267.086.489.258.662.171.17.4.257.678.257.254 0 .474-.09.651-.266l.001-.001a.894.894 0 0 0 .265-.652v-.785c0-.788-.155-1.601-.46-2.416-.268-.712-.735-1.211-1.39-1.487a3.225 3.225 0 0 0 1.355-1.126 3.422 3.422 0 0 0 .598-1.953c0-1.076-.409-1.96-1.216-2.624-.798-.658-2.002-.991-3.576-.991H29.09a.871.871 0 0 0-.653.277.915.915 0 0 0-.265.659V27.13a.89.89 0 0 0 .267.652.944.944 0 0 0 1.31.002zM46.545 23.641c.37.222.55.521.55.912 0 1.072-.712 1.663-2.175 1.801V23.01c.71.196 1.256.41 1.625.632m-4.304-3.463c-.38-.247-.564-.597-.564-1.07 0-.5.204-.894.622-1.202.398-.293.92-.48 1.554-.56v3.48c-.7-.19-1.242-.407-1.612-.648m-1.285 5.552a.967.967 0 0 0-.385-.08.818.818 0 0 0-.612.25.84.84 0 0 0-.237.6c0 .18.056.346.167.491a.95.95 0 0 0 .4.311c1.097.476 2.295.754 3.564.824v1.19c0 .154.048.282.146.38a.519.519 0 0 0 .379.145.546.546 0 0 0 .382-.14.5.5 0 0 0 .16-.386v-1.19c.767-.058 1.45-.232 2.032-.518.625-.306 1.116-.716 1.458-1.219a3.02 3.02 0 0 0 .52-1.733c0-.783-.2-1.42-.597-1.897a3.717 3.717 0 0 0-1.44-1.057c-.523-.219-1.186-.424-1.973-.612V17.3a7.753 7.753 0 0 1 2.355.447.928.928 0 0 0 .329.078c.25 0 .454-.089.608-.264a.862.862 0 0 0 .224-.585c0-.403-.2-.689-.576-.825a9.833 9.833 0 0 0-2.94-.566v-1.17a.526.526 0 0 0-.155-.387c-.203-.206-.576-.206-.772.005a.552.552 0 0 0-.14.381v1.192c-.81.058-1.517.244-2.106.554-.626.332-1.105.77-1.423 1.302a3.368 3.368 0 0 0-.483 1.766c0 .74.202 1.35.6 1.815.389.453.873.805 1.437 1.046.524.224 1.188.443 1.975.652v3.637c-1.063-.048-2.037-.265-2.897-.647"/>
    </g>
</svg>
