<svg xmlns="http://www.w3.org/2000/svg" width="70" height="66" viewBox="0 0 70 66">
    <path fill="#000" fill-rule="evenodd" d="M60.219 62.212l-.365-.354-21.559-20.917.137-.176L66.863 4.066l-6.644 58.146zm-29.821-2.289l.119-22.42.078-.075 27.376-25.707.369.336-22.008 28.42a.92.92 0 0 0 .078 1.22l6.836 6.612-12.848 11.614zM29.24 36.18h-.099l-24.593-.048.872-.468L61.09 5.74v.527l-.079.076L29.24 36.18zM69.058.678l-.04-.096a.766.766 0 0 0-.097-.178L68.88.341a.406.406 0 0 1-.057-.07c-.016-.014-.073-.064-.127-.107-.014-.01-.051-.039-.08-.05l-.179-.06a.86.86 0 0 0-.467-.039c-.032.012-.059.018-.079.023-.085.022-.103.03-.117.04L.484 36.252a.91.91 0 0 0-.456 1.023.915.915 0 0 0 .889.712l27.787.033-.147 23.986a.92.92 0 0 0 .55.844c.296.14.721.083.992-.16l14.477-13.084 15.72 15.222a.931.931 0 0 0 .639.263.894.894 0 0 0 .31-.06.889.889 0 0 0 .601-.752l7.24-63.265-.002-.1c0-.074-.01-.162-.026-.236z"/>
</svg>
