<svg xmlns="http://www.w3.org/2000/svg" xmlns:xlink="http://www.w3.org/1999/xlink" width="68" height="74" viewBox="0 0 68 74">
    <defs>
        <path id="a" d="M67.358 73H0V.207h67.358z"/>
    </defs>
    <g fill="none" fill-rule="evenodd">
        <g transform="translate(0 .793)">
            <mask id="b" fill="#fff">
                <use xlink:href="#a"/>
            </mask>
            <path fill="#000" d="M15.535 68.413V10.376h38.668a2.643 2.643 0 0 1 2.64 2.641v56.125L55.8 68.15l-3.7-3.38-.095-.089-5.325 4.42-5.345-4.476-5.028 4.47-5.708-4.377-4.93 4.372-5.738-4.317-.097-.072-4.298 3.713zM54.434 8.305H11.972a2.605 2.605 0 0 0-2.602 2.603v5.493h-7.3V5.486a3.212 3.212 0 0 1 3.209-3.208h56.8a3.212 3.212 0 0 1 3.209 3.208v10.915h-6.49v-3.73a4.369 4.369 0 0 0-4.364-4.366zM62.578.207H4.49A4.496 4.496 0 0 0 0 4.697v13.777h13.465V73l6.45-5.447 5.778 4.431 4.977-4.322 5.563 4.327 5.225-4.335 5.098 4.327 5.537-4.424 6.82 5.39V18.473h8.445V4.987a4.785 4.785 0 0 0-4.78-4.78z" mask="url(#b)"/>
        </g>
        <path fill="#000" d="M22.944 25.71h13.883c.455 0 .885-.431.885-.886s-.43-.885-.885-.885H22.944c-.455 0-.885.43-.885.885 0 .441.304.886.885.886M22.944 32.188h13.883c.455 0 .885-.432.885-.887 0-.453-.43-.884-.885-.884H22.944c-.455 0-.885.43-.885.884 0 .442.304.887.885.887M22.944 38.666h13.883c.455 0 .885-.431.885-.886s-.43-.885-.885-.885H22.944c-.455 0-.885.43-.885.885 0 .441.304.886.885.886M22.944 45.259h13.883c.455 0 .885-.431.885-.885 0-.455-.43-.886-.885-.886H22.944c-.455 0-.885.43-.885.886 0 .454.43.885.885.885M46.773 45.259h3.355c.455 0 .885-.431.885-.885 0-.44-.304-.886-.885-.886h-3.355c-.455 0-.885.43-.885.886 0 .454.43.885.885.885M50.128 54.246H33.355c-.456 0-.885.431-.885.886s.43.885.885.885h16.773c.455 0 .885-.43.885-.885 0-.44-.304-.886-.885-.886M46.773 38.666h3.355c.455 0 .885-.431.885-.886 0-.44-.304-.885-.885-.885h-3.355c-.455 0-.885.43-.885.885s.43.886.885.886M46.773 32.188h3.355c.455 0 .885-.432.885-.887 0-.438-.304-.884-.885-.884h-3.355c-.455 0-.885.43-.885.884 0 .456.43.887.885.887M46.773 25.71h3.355c.455 0 .885-.431.885-.886 0-.44-.304-.885-.885-.885h-3.355c-.455 0-.885.43-.885.885s.43.886.885.886"/>
    </g>
</svg>
